<?xml version="1.0" standalone="no"?>
<!DOCTYPE svg PUBLIC "-//W3C//DTD SVG 20010904//EN"
 "http://www.w3.org/TR/2001/REC-SVG-20010904/DTD/svg10.dtd">
<svg version="1.0" xmlns="http://www.w3.org/2000/svg"
 width="3312.000000pt" height="3312.000000pt" viewBox="0 0 3312.000000 3312.000000"
 preserveAspectRatio="xMidYMid meet">
<metadata>
Created by potrace 1.14, written by Peter Selinger 2001-2017
</metadata>
<g transform="translate(0.000000,3312.000000) scale(0.100000,-0.100000)"
fill="#000000" stroke="none">
<path d="M12005 20070 c-487 -124 -583 -149 -603 -157 -22 -8 -11 -31 341
-738 200 -402 430 -864 511 -1027 81 -164 153 -299 159 -299 19 -3 361 8 547
16 47 2 166 6 265 10 99 3 241 7 315 10 461 16 1411 33 2805 50 1111 13 1325
16 1405 20 47 2 184 6 305 10 121 3 261 8 310 10 173 8 256 8 264 -1 10 -12
493 -1265 489 -1269 -3 -3 -75 -13 -158 -20 -30 -3 -75 -7 -100 -10 -81 -9
-134 -14 -205 -20 -38 -3 -90 -8 -115 -10 -25 -3 -81 -7 -125 -10 -44 -3 -102
-8 -130 -10 -27 -3 -93 -7 -145 -10 -52 -3 -113 -8 -135 -10 -22 -2 -85 -7
-140 -10 -55 -3 -118 -7 -140 -10 -22 -2 -85 -7 -140 -10 -55 -3 -118 -8 -140
-10 -22 -2 -87 -7 -145 -10 -58 -3 -121 -8 -140 -10 -19 -2 -80 -7 -135 -10
-55 -3 -118 -8 -140 -10 -22 -2 -85 -7 -140 -10 -55 -4 -120 -8 -145 -10 -25
-2 -83 -6 -130 -10 -113 -8 -187 -13 -290 -20 -47 -3 -107 -7 -135 -10 -27 -2
-90 -7 -140 -10 -49 -3 -112 -8 -140 -10 -27 -3 -90 -7 -140 -10 -49 -3 -115
-8 -145 -10 -30 -3 -93 -7 -140 -10 -47 -3 -113 -8 -146 -10 -34 -3 -97 -8
-140 -10 -44 -3 -104 -7 -134 -10 -86 -6 -209 -15 -280 -20 -36 -2 -99 -7
-140 -10 -41 -3 -109 -7 -150 -10 -41 -3 -102 -7 -135 -10 -33 -3 -96 -7 -140
-10 -44 -3 -107 -7 -140 -10 -85 -7 -177 -14 -270 -20 -44 -3 -107 -7 -140
-10 -33 -3 -96 -7 -140 -10 -44 -3 -107 -7 -140 -10 -63 -5 -138 -10 -290 -20
-49 -3 -110 -8 -135 -10 -25 -2 -90 -7 -145 -10 -55 -3 -120 -8 -145 -10 -25
-2 -90 -7 -145 -10 -55 -4 -116 -8 -135 -10 -19 -2 -82 -6 -140 -10 -58 -3
-125 -8 -150 -10 -40 -4 -147 -12 -277 -20 -71 -5 -216 -16 -268 -20 -27 -2
-90 -7 -140 -10 -49 -3 -117 -8 -150 -10 -33 -3 -89 -7 -125 -9 -36 -3 -108
-8 -160 -12 -52 -3 -115 -8 -140 -9 -25 -2 -83 -6 -130 -9 -47 -4 -116 -9
-155 -11 -281 -19 -390 -27 -555 -40 -30 -2 -98 -7 -150 -10 -52 -4 -114 -8
-138 -10 -23 -2 -86 -7 -140 -11 -53 -3 -117 -7 -142 -9 -25 -2 -88 -7 -140
-10 -52 -4 -115 -8 -140 -10 -25 -2 -83 -6 -130 -9 -115 -8 -214 -16 -280 -21
-30 -2 -95 -7 -145 -10 -49 -3 -110 -8 -135 -10 -25 -2 -85 -6 -135 -10 -49
-3 -124 -8 -165 -11 -41 -3 -100 -7 -130 -9 -30 -2 -95 -6 -145 -10 -49 -4
-110 -9 -135 -10 -48 -3 -193 -13 -275 -20 -27 -2 -95 -7 -150 -10 -55 -3
-118 -8 -140 -10 -22 -2 -85 -7 -140 -10 -55 -4 -120 -8 -145 -10 -25 -3 -81
-7 -125 -10 -44 -3 -105 -7 -135 -10 -30 -2 -91 -7 -135 -10 -289 -19 -360
-24 -425 -30 -30 -3 -98 -7 -150 -10 -52 -3 -122 -8 -155 -10 -33 -3 -89 -7
-125 -10 -36 -3 -101 -7 -145 -10 -44 -3 -102 -7 -130 -9 -27 -3 -95 -7 -150
-10 -55 -4 -122 -8 -150 -11 -27 -2 -86 -7 -130 -10 -44 -3 -107 -8 -140 -10
-33 -3 -91 -7 -130 -10 -151 -11 -212 -16 -265 -20 -30 -3 -100 -7 -155 -11
-55 -3 -120 -7 -145 -9 -25 -2 -90 -7 -145 -10 -55 -3 -120 -8 -145 -10 -25
-2 -83 -7 -130 -10 -121 -8 -226 -15 -295 -20 -33 -2 -96 -7 -140 -10 -44 -3
-105 -8 -135 -10 -30 -2 -93 -7 -140 -10 -47 -3 -101 -8 -120 -10 -19 -2 -78
-7 -130 -10 -52 -3 -120 -8 -150 -10 -30 -2 -95 -7 -145 -10 -49 -3 -123 -7
-163 -10 -142 -10 -218 -15 -317 -20 -55 -3 -131 -8 -170 -10 -38 -2 -117 -7
-175 -10 -58 -4 -123 -8 -145 -10 -54 -5 -310 -18 -359 -19 l-40 -1 -49 -105
c-26 -58 -54 -118 -62 -135 -7 -16 -27 -60 -44 -97 -37 -81 -61 -139 -61 -145
0 -5 37 -3 255 12 28 2 95 6 150 10 55 4 125 8 155 10 30 2 98 7 150 10 52 4
115 8 140 10 25 2 92 6 150 10 58 3 125 8 150 10 25 2 88 7 140 10 52 3 122 8
155 10 129 10 213 15 295 20 47 3 115 7 153 10 192 14 415 30 582 40 44 3 105
7 135 10 30 2 100 7 155 10 55 3 120 8 145 10 25 3 90 7 145 10 55 3 125 8
155 10 71 6 223 16 440 30 100 6 170 11 285 20 39 3 106 7 150 10 102 6 215
14 285 20 30 2 105 7 165 11 61 3 126 8 145 9 19 2 82 7 140 10 155 10 317 21
445 30 81 6 193 14 290 20 44 3 112 7 150 10 39 3 105 7 148 10 42 3 110 7
150 10 162 12 288 21 427 30 90 5 233 15 305 20 33 2 96 7 140 10 44 3 107 8
140 10 33 2 103 7 155 10 52 3 118 8 145 10 28 2 97 7 155 10 58 4 125 8 150
10 25 2 92 7 150 10 58 4 116 8 130 10 14 2 79 7 145 10 66 4 136 8 155 10 19
2 85 7 145 10 61 4 126 8 145 10 19 2 88 6 153 10 65 4 130 8 145 10 15 2 86
7 157 10 72 4 137 9 146 10 9 2 70 7 135 11 65 4 135 8 154 9 19 2 85 6 145 9
61 4 130 9 155 11 25 2 86 7 135 10 50 3 113 8 140 10 28 2 95 7 150 10 55 3
125 8 155 10 30 2 96 7 145 10 50 3 115 8 145 10 66 5 183 13 300 20 47 3 112
8 145 10 33 3 94 7 135 10 115 7 218 14 295 20 39 2 108 7 155 10 120 8 214
14 290 20 36 3 101 7 145 10 44 3 112 8 150 10 39 3 106 7 150 10 78 5 140 9
300 21 44 3 109 7 145 9 36 2 99 6 140 10 102 7 199 14 295 20 80 5 176 12
290 20 33 2 105 7 160 10 55 3 120 8 145 10 25 2 86 7 135 10 50 3 115 8 145
10 30 2 100 6 155 10 55 3 120 8 145 10 25 2 90 7 145 11 55 3 123 8 150 10
28 2 93 6 145 9 52 4 122 8 155 10 162 12 217 15 295 20 47 3 110 7 140 10 30
3 93 7 140 10 47 3 114 7 150 10 36 3 103 7 150 10 47 3 112 8 145 10 63 5
155 11 290 20 199 12 244 15 300 20 80 6 190 14 300 20 50 3 115 7 145 10 30
2 91 7 135 10 88 5 210 14 295 20 30 2 102 7 160 11 58 4 121 8 140 9 19 1 85
6 145 10 61 4 126 8 145 10 19 2 87 6 150 10 63 4 131 8 150 10 19 1 85 5 145
9 61 4 128 9 150 11 22 2 85 7 140 10 55 4 120 8 145 10 25 2 95 7 155 10 61
4 128 9 150 10 22 2 85 6 140 9 55 4 120 8 145 11 25 2 90 6 145 10 55 3 127
8 160 10 33 3 96 7 140 10 44 3 107 7 140 10 33 3 101 7 150 10 50 3 117 7
150 10 153 12 290 21 445 29 63 4 131 9 150 11 19 2 80 7 135 10 55 3 127 8
160 10 33 3 96 7 140 10 44 3 112 7 150 10 128 9 199 14 290 20 50 3 113 8
140 10 28 2 95 7 150 10 55 3 120 8 145 10 25 2 92 7 150 10 58 4 125 8 150
10 25 2 90 7 145 10 55 4 120 8 145 10 25 2 95 6 155 10 61 3 126 8 145 10 19
2 82 7 140 11 58 3 128 7 155 9 28 2 91 7 140 10 119 7 217 14 290 20 33 3
103 7 155 10 52 3 118 8 145 10 28 2 95 7 150 10 55 3 123 8 150 10 28 3 88 7
135 10 47 3 114 7 150 10 36 2 106 7 155 10 50 3 113 8 140 10 28 2 93 7 145
10 52 3 122 8 155 10 33 2 98 7 145 10 47 3 112 7 145 10 33 3 98 7 145 10 47
3 112 8 145 10 142 11 219 16 302 20 48 3 111 7 138 10 28 2 97 7 155 10 58 4
121 8 140 10 19 2 85 6 145 10 61 4 130 8 155 10 25 2 86 6 135 10 50 3 117 7
150 10 33 2 101 7 150 10 180 12 221 15 285 20 36 2 106 7 155 10 50 3 115 7
145 10 30 2 100 7 155 10 55 4 116 8 135 10 19 2 89 6 155 10 66 4 134 9 150
10 17 1 80 6 140 10 61 4 130 8 155 10 25 2 88 6 140 9 52 4 120 8 150 11 30
2 98 7 150 11 52 3 113 7 135 9 266 21 427 24 432 9 2 -6 -61 -64 -139 -130
-79 -65 -145 -121 -148 -124 -3 -3 -43 -37 -90 -76 -47 -39 -161 -135 -255
-214 -93 -78 -190 -159 -215 -180 -25 -21 -175 -147 -335 -280 -159 -134 -342
-286 -405 -339 -63 -53 -126 -106 -140 -118 -14 -11 -61 -51 -105 -88 -44 -36
-89 -74 -100 -84 -11 -9 -146 -123 -300 -251 -154 -129 -291 -244 -305 -256
-14 -12 -72 -61 -130 -109 -58 -49 -213 -178 -345 -289 -132 -110 -249 -208
-260 -217 -25 -21 -104 -87 -136 -114 -13 -11 -53 -44 -89 -75 -36 -30 -73
-62 -84 -70 -10 -8 -23 -20 -30 -25 -6 -6 -51 -44 -101 -85 -49 -41 -92 -77
-95 -80 -3 -3 -72 -61 -155 -130 -82 -68 -155 -129 -161 -135 -6 -5 -29 -25
-52 -43 -23 -19 -51 -43 -64 -54 -13 -11 -43 -37 -68 -57 -25 -20 -51 -41 -58
-48 -7 -6 -46 -40 -87 -74 -42 -34 -74 -63 -73 -65 2 -1 60 -25 131 -53 118
-47 133 -51 213 -51 96 0 116 8 249 95 62 42 331 233 490 349 11 8 99 71 195
140 96 69 184 132 195 140 160 116 759 538 1145 808 36 24 145 101 242 169 98
68 297 207 443 309 146 102 273 191 283 198 9 7 215 151 457 320 242 170 546
382 675 473 129 91 260 182 290 204 30 21 161 112 290 203 129 91 269 189 310
218 41 29 89 63 105 74 109 78 510 358 555 388 30 20 60 41 67 47 6 5 147 104
313 219 317 220 373 271 346 309 -7 9 -21 15 -32 13 -25 -5 -159 -24 -209 -30
-22 -3 -83 -8 -135 -11 -52 -3 -111 -8 -130 -10 -19 -2 -84 -7 -145 -11 -158
-10 -170 -11 -280 -18 -55 -4 -118 -9 -140 -11 -22 -2 -87 -7 -145 -10 -58 -4
-121 -8 -140 -10 -19 -2 -80 -6 -135 -10 -55 -4 -120 -8 -145 -10 -25 -2 -90
-7 -145 -10 -55 -3 -120 -8 -145 -10 -25 -2 -83 -7 -130 -10 -47 -3 -114 -8
-150 -10 -36 -3 -99 -7 -140 -10 -41 -3 -104 -7 -140 -10 -36 -2 -99 -7 -140
-10 -41 -3 -100 -8 -130 -10 -30 -2 -98 -7 -150 -10 -52 -3 -115 -8 -140 -10
-25 -3 -85 -7 -135 -10 -49 -4 -111 -8 -137 -10 -25 -2 -88 -7 -140 -10 -51
-3 -113 -8 -138 -10 -48 -4 -157 -12 -280 -20 -41 -3 -102 -7 -135 -10 -33 -2
-100 -7 -150 -10 -49 -4 -110 -8 -135 -10 -25 -2 -92 -7 -150 -10 -58 -4 -123
-9 -145 -11 -22 -2 -85 -6 -140 -9 -55 -3 -116 -7 -135 -10 -19 -2 -82 -7
-140 -10 -58 -4 -121 -8 -140 -10 -19 -2 -82 -6 -140 -10 -58 -4 -118 -8 -135
-10 -16 -2 -75 -7 -130 -10 -55 -4 -116 -8 -135 -10 -19 -2 -84 -6 -145 -9
-60 -4 -126 -8 -145 -11 -19 -2 -73 -6 -120 -10 -165 -11 -236 -15 -302 -20
-38 -3 -101 -7 -140 -10 -40 -3 -107 -7 -148 -10 -41 -3 -106 -7 -145 -10
-167 -10 -255 -16 -320 -20 -86 -6 -245 -15 -345 -20 -227 -11 -312 -16 -380
-20 -41 -2 -124 -7 -185 -10 -135 -7 -221 -13 -300 -19 -33 -3 -96 -8 -140
-11 -44 -3 -93 -8 -110 -10 -16 -2 -70 -7 -120 -10 -49 -4 -97 -9 -105 -10 -9
-2 -58 -6 -110 -10 -52 -4 -103 -9 -112 -10 -9 -2 -61 -6 -115 -10 -54 -4
-109 -8 -123 -10 -51 -8 -300 -23 -490 -30 -174 -6 -328 -14 -410 -20 -36 -3
-103 -7 -150 -10 -47 -3 -105 -7 -130 -10 -62 -7 -166 -16 -220 -20 -25 -1
-72 -6 -104 -9 -32 -4 -82 -9 -110 -11 -151 -13 -194 -16 -226 -20 -19 -2 -73
-7 -120 -10 -47 -3 -96 -8 -110 -10 -27 -4 -172 -11 -385 -20 -188 -8 -315
-15 -355 -20 -19 -2 -80 -9 -135 -15 -55 -6 -111 -13 -125 -15 -99 -15 -365
-31 -657 -41 -140 -4 -173 -3 -173 8 0 7 -21 76 -46 153 -25 77 -62 194 -83
260 -21 66 -112 345 -201 620 -89 275 -180 557 -203 627 -29 90 -46 128 -58
131 -10 3 -125 3 -256 2 -328 -5 -938 -14 -1233 -20 -135 -3 -420 -7 -635 -11
-214 -3 -500 -7 -635 -10 -135 -2 -686 -6 -1225 -9 -1094 -6 -1775 -13 -1850
-19 -27 -3 -133 -8 -235 -11 -102 -4 -231 -8 -288 -10 l-103 -4 -28 62 c-16
34 -53 114 -84 177 -48 102 -89 188 -257 545 -23 50 -73 155 -111 234 -38 79
-69 145 -69 146 0 2 -37 81 -83 176 -46 96 -94 198 -107 227 -13 28 -28 52
-34 51 -6 -1 -42 -9 -81 -19z"/>
<path d="M24750 15278 c0 -351 3 -638 8 -639 4 0 76 -1 160 -2 128 -2 153 0
156 13 3 8 4 227 4 485 0 259 1 480 1 491 1 22 3 22 211 22 147 -1 210 -4 211
-12 1 -6 3 -229 4 -496 1 -267 3 -490 4 -495 1 -14 341 -14 341 0 0 5 -4 37
-10 70 -21 136 -34 331 -34 520 0 141 9 325 18 370 3 11 5 26 5 33 1 9 42 12
171 12 94 0 170 -3 171 -7 0 -5 3 -17 5 -28 3 -11 7 -47 10 -80 9 -103 32
-160 81 -206 61 -56 126 -84 310 -130 187 -46 256 -78 296 -136 37 -51 32 -78
-22 -132 -53 -53 -109 -65 -270 -58 -69 3 -142 9 -161 12 -61 10 -154 27 -175
31 -11 2 -30 6 -42 8 -28 6 -30 -14 -8 -99 34 -133 79 -180 184 -191 85 -9
351 -9 416 0 146 21 230 60 303 141 129 146 127 398 -5 514 -70 62 -164 100
-458 185 l-150 43 2 44 c4 79 9 86 55 92 24 3 102 4 173 2 148 -3 212 11 287
63 48 33 108 100 145 161 l22 38 -1209 0 -1210 0 0 -639z m316 497 l-1 -90
-142 0 c-79 0 -143 3 -143 6 0 3 44 44 98 90 53 46 106 93 117 105 l20 21 26
-21 c25 -20 26 -25 25 -111z"/>
<path d="M681 14850 c-19 -13 -129 -227 -459 -900 -123 -251 -169 -335 -205
-372 -7 -7 -12 -20 -12 -28 0 -13 150 -15 1278 -18 703 -1 1276 1 1274 5 -2 5
-11 24 -20 43 -8 19 -34 76 -57 125 -23 50 -58 124 -77 165 -18 41 -43 91 -53
111 -11 20 -20 42 -20 48 0 7 38 11 119 11 l119 0 201 401 c111 221 201 405
201 408 0 7 -2279 8 -2289 1z m1323 -512 c-24 -51 -50 -100 -57 -108 -11 -13
-61 -15 -361 -15 -223 0 -350 -3 -356 -10 -9 -11 -150 -271 -150 -277 0 -1
120 -2 267 -2 250 2 270 0 304 -18 35 -20 76 -73 62 -80 -12 -6 -831 -3 -837
3 -3 2 61 138 142 302 l146 297 443 0 442 0 -45 -92z"/>
<path d="M3138 14766 c-25 -50 -131 -262 -236 -471 -105 -209 -198 -406 -207
-437 -31 -108 -7 -184 92 -289 l64 -67 167 0 c92 1 174 5 184 9 9 5 30 37 46
71 16 35 53 111 81 170 52 110 78 139 144 159 17 6 129 12 247 13 235 4 272
-2 335 -49 52 -40 84 -92 153 -245 l61 -135 58 1 c102 2 606 20 773 29 41 2
112 4 158 5 l83 2 220 442 c121 242 224 445 228 449 8 8 869 12 877 4 2 -2 -2
-19 -9 -38 -8 -19 -27 -67 -41 -106 l-28 -73 -371 0 -372 -1 -67 -136 c-37
-75 -66 -139 -63 -141 2 -2 132 -4 288 -5 l284 0 52 -96 c126 -236 167 -310
173 -316 8 -8 667 -10 674 -2 3 2 -15 47 -40 98 -24 52 -55 119 -69 149 -14
30 -48 103 -75 163 -30 63 -46 107 -39 108 31 2 109 7 171 10 57 3 70 7 76 24
4 11 45 97 90 190 45 94 108 224 140 290 32 66 72 149 89 185 18 36 38 79 46
96 l13 31 -1141 -1 -1142 -1 -86 -170 c-357 -707 -423 -835 -429 -835 -3 0
-25 42 -50 93 -24 50 -133 274 -242 496 -109 222 -198 407 -198 411 0 4 -251
7 -559 7 l-558 0 -45 -91z m682 -386 c44 -88 80 -162 80 -164 0 -3 -72 -5
-160 -4 -89 0 -160 4 -160 9 0 9 153 319 157 319 2 0 39 -72 83 -160z"/>
<path d="M8080 14852 c-18 -3 -683 -1324 -670 -1332 10 -6 2289 -5 2294 1 1 2
29 58 61 124 32 66 110 226 173 355 63 129 142 294 177 365 34 72 99 202 143
291 44 89 83 170 86 181 7 20 4 21 -332 20 l-339 0 -103 -201 c-56 -111 -152
-298 -213 -416 -61 -118 -134 -260 -162 -315 l-50 -100 -438 0 c-254 0 -437 4
-437 9 0 8 342 705 456 929 25 48 41 88 37 88 -18 3 -669 4 -683 1z"/>
<path d="M10721 14850 c-4 -3 -87 -167 -184 -365 -98 -198 -183 -369 -189
-380 -6 -11 -36 -69 -66 -130 -29 -60 -94 -190 -142 -287 -49 -98 -88 -179
-87 -179 1 -1 158 -2 349 -3 l348 -1 19 40 c11 22 64 133 119 246 55 113 130
274 168 358 75 170 123 235 205 276 44 23 135 41 184 38 11 -1 81 -4 155 -8
74 -4 149 -9 165 -11 17 -2 84 -6 150 -10 151 -8 163 -9 170 -16 4 -3 -95
-206 -219 -451 -124 -245 -226 -448 -226 -451 0 -3 156 -6 348 -6 l347 0 20
43 c25 51 403 794 549 1079 58 114 106 211 106 215 0 9 -2277 11 -2289 3z"/>
<path d="M13223 14846 c-18 -29 -523 -1047 -523 -1054 0 -5 31 -72 70 -150
l70 -142 32 5 c18 2 67 7 108 9 76 6 145 12 235 22 l50 5 35 67 c63 123 164
307 171 312 8 6 618 5 623 -1 2 -2 47 -92 101 -199 53 -107 101 -199 105 -204
6 -6 2514 -12 2648 -7 7 1 31 40 53 89 42 88 87 183 158 335 21 45 59 125 84
177 24 52 41 97 37 100 -5 3 -351 5 -770 5 -419 0 -765 2 -770 5 -4 3 12 52
35 110 l43 105 803 1 803 1 27 59 c104 222 158 349 150 353 -5 4 -516 6 -1136
6 l-1127 0 -216 -431 c-120 -237 -224 -446 -233 -465 l-17 -35 87 -1 c84 -1
458 -10 756 -18 83 -2 263 -7 400 -11 138 -3 266 -7 285 -8 51 -2 49 -27 -3
-51 -40 -18 -70 -19 -790 -20 -412 0 -752 2 -757 5 -4 3 -123 237 -264 521
l-255 516 -551 0 c-398 1 -552 -3 -557 -11z m636 -458 c44 -87 81 -161 81
-165 0 -5 -76 -8 -169 -8 l-169 0 86 167 c47 92 87 166 88 165 1 -1 38 -73 83
-159z"/>
<path d="M17935 14771 c-21 -47 -61 -133 -88 -191 -27 -58 -52 -114 -57 -125
-8 -20 -5 -20 377 -20 l384 0 -6 -25 c-7 -28 -102 -221 -252 -510 -78 -151
-163 -345 -163 -374 0 -2 156 -3 346 -3 343 0 346 0 354 21 4 11 73 154 152
316 79 162 175 358 212 435 l68 140 394 0 394 0 84 155 c46 85 98 180 115 211
l31 56 -1154 0 -1153 0 -38 -86z"/>
<path d="M20620 14850 c-4 -3 -159 -308 -344 -677 l-336 -673 290 1 c164 0
306 5 327 11 91 24 166 115 266 320 69 142 151 315 208 438 24 52 51 109 59
125 l17 30 441 1 c273 1 442 -2 442 -8 0 -5 -9 -28 -19 -51 -11 -23 -31 -68
-45 -99 l-25 -58 -48 0 c-26 -1 -193 -1 -370 -1 l-321 0 -51 -118 c-27 -64
-54 -128 -60 -142 l-9 -25 284 -1 c157 0 287 -3 290 -6 3 -3 50 -92 104 -199
l98 -193 346 0 c190 0 346 3 346 6 0 6 -33 80 -97 219 -89 191 -124 273 -118
278 3 3 26 6 53 8 26 1 74 3 108 4 l60 3 54 116 c30 64 86 184 126 266 39 83
86 182 104 220 18 39 46 97 61 129 16 33 29 64 29 70 0 8 -332 11 -1131 11
-622 0 -1134 -2 -1139 -5z"/>
<path d="M23180 14678 c-92 -182 -174 -341 -349 -682 -67 -129 -91 -185 -87
-201 3 -13 33 -84 66 -157 l61 -133 204 0 c121 0 208 4 213 10 5 6 47 82 92
170 100 193 120 228 130 235 15 9 601 3 610 -6 5 -5 53 -95 106 -199 53 -105
98 -192 100 -194 7 -8 686 -6 691 2 2 4 -5 24 -16 45 -11 20 -68 136 -127 257
-59 121 -181 371 -271 555 -91 184 -181 368 -200 408 l-35 72 -548 0 -547 0
-93 -182z m712 -300 c43 -83 76 -154 73 -156 -4 -4 -213 -6 -292 -3 -22 1 -18
11 54 156 43 85 80 155 83 155 3 0 40 -69 82 -152z"/>
</g>
</svg>
